<?xml version="1.0" encoding="utf-8"?>
<!-- Generator: Adobe Illustrator 27.1.1, SVG Export Plug-In . SVG Version: 6.00 Build 0)  -->
<svg version="1.1" id="Layer_1" xmlns="http://www.w3.org/2000/svg" xmlns:xlink="http://www.w3.org/1999/xlink" x="0px" y="0px"
	 viewBox="0 0 32 32" style="enable-background:new 0 0 32 32;" xml:space="preserve">
<style type="text/css">
	.st0{fill:#00FF88;}
	.st1{fill:#060606;}
</style>
<rect class="st0" width="32" height="32"/>
<g>
	<g>
		<path class="st1" d="M15.57,25.74c-1.26,0-2.36-0.24-3.28-0.73c-0.92-0.49-1.62-1.18-2.11-2.09c-0.49-0.9-0.73-1.99-0.73-3.25
			v-2.71h2.69v2.47c0,1.17,0.3,2.08,0.91,2.75c0.61,0.66,1.45,1,2.52,1c1.09,0,1.94-0.33,2.54-1c0.61-0.66,0.91-1.58,0.91-2.75V8.79
			h-8.18V6.15h10.92v13.51c0,1.26-0.25,2.35-0.74,3.25c-0.5,0.9-1.2,1.6-2.12,2.09C17.97,25.49,16.86,25.74,15.57,25.74z"/>
	</g>
</g>
</svg>
